<?xml version="1.0" standalone="no"?>
<!DOCTYPE svg PUBLIC "-//W3C//DTD SVG 20010904//EN"
 "http://www.w3.org/TR/2001/REC-SVG-20010904/DTD/svg10.dtd">
<svg version="1.0" xmlns="http://www.w3.org/2000/svg"
 width="640.000000pt" height="674.000000pt" viewBox="0 0 640.000000 674.000000"
 preserveAspectRatio="xMidYMid meet">

<g transform="translate(0.000000,674.000000) scale(0.100000,-0.100000)"
fill="#000000" stroke="none">
<path d="M1346 6730 c-625 -74 -1155 -530 -1321 -1135 -22 -79 -25 -111 -25
-252 l0 -163 3200 0 3200 0 0 161 c0 129 -4 176 -20 241 -107 418 -418 796
-815 992 -137 68 -230 101 -392 138 l-98 22 -1830 2 c-1007 1 -1861 -2 -1899
-6z"/>
<path d="M0 3989 c0 -127 4 -177 20 -238 67 -261 202 -494 410 -702 185 -186
366 -298 609 -379 244 -81 -13 -74 2829 -78 l2534 -2 -4 187 c-4 184 -5 190
-40 294 -36 104 -115 273 -166 353 -102 159 -285 348 -440 454 -164 112 -358
195 -571 244 l-96 22 -2542 3 -2543 3 0 -161z"/>
<path d="M0 1398 c0 -142 3 -174 25 -253 107 -393 378 -738 740 -944 173 -99
391 -168 597 -191 64 -6 696 -10 1850 -10 1875 0 1851 0 2048 50 533 135 970
565 1115 1095 22 79 25 111 25 253 l0 162 -3200 0 -3200 0 0 -162z"/>
</g>
</svg>
